<svg xmlns="http://www.w3.org/2000/svg" viewBox="-10 0 250 180">
  <defs>
    <linearGradient id="cloudGradient" x1="0%" y1="0%" x2="100%" y2="0%">
      <stop offset="0%" style="stop-color:#4facfe;stop-opacity:1" />
      <stop offset="100%" style="stop-color:#00f2fe;stop-opacity:1" />
    </linearGradient>
  </defs>

  <g transform="translate(0, 0) scale(0.4)">
    <path d="M 250 80 C 220 80 195 95 180 120 C 175 118 170 118 165 118 C 123 118 90 151 90 193 C 90 234 123 268 165 268 L 330 268 C 365 268 395 238 395 203 C 395 168 365 138 330 138 C 325 138 320 139 315 140 C 305 105 280 80 250 80 Z" 
          fill="none" stroke="url(#cloudGradient)" stroke-width="5" stroke-linecap="round" stroke-linejoin="round"/>
    
    <g fill="url(#cloudGradient)">
       <circle cx="185" cy="190" r="15" />
       <path d="M 160 230 Q 185 200 210 230" fill="none" stroke="url(#cloudGradient)" stroke-width="5" stroke-linecap="round" />
       
       <circle cx="245" cy="170" r="20" />
       <path d="M 210 230 Q 245 190 280 230" fill="none" stroke="url(#cloudGradient)" stroke-width="5" stroke-linecap="round" />

       <circle cx="305" cy="190" r="15" />
       <path d="M 280 230 Q 305 200 330 230" fill="none" stroke="url(#cloudGradient)" stroke-width="5" stroke-linecap="round" />
    </g>
  </g>
</svg>